<?xml version="1.0" encoding="utf-8"?>
<!-- Generator: Adobe Illustrator 19.2.1, SVG Export Plug-In . SVG Version: 6.00 Build 0)  -->
<svg version="1.1" id="Ebene_1" xmlns="http://www.w3.org/2000/svg" xmlns:xlink="http://www.w3.org/1999/xlink" x="0px" y="0px"
	 viewBox="0 0 100 23" style="enable-background:new 0 0 100 23;" xml:space="preserve">
<style type="text/css">
	.st0{fill:#FFFFFF;}
</style>
<g>
	<g>
		<path class="st0" d="M12.34,13.93c0,2.12-1.39,3.67-4.2,3.97c-2.04,0.22-4.99-0.04-6.39-0.2c-0.05-0.23-0.09-0.51-0.09-0.74
			c0-1.85,1-2.28,1.93-2.28c0.98,0,2.51,0.17,3.65,0.17c1.26,0,1.64-0.43,1.64-0.83c0-0.53-0.5-0.75-1.48-0.94l-2.67-0.51
			c-2.22-0.43-3.4-1.96-3.4-3.59c0-1.98,1.4-3.64,4.16-3.94c2.09-0.23,4.63,0.03,6.02,0.2c0.05,0.24,0.08,0.47,0.08,0.71
			c0,1.85-0.98,2.25-1.92,2.25c-0.72,0-1.84-0.13-3.12-0.13c-1.3,0-1.84,0.36-1.84,0.8c0,0.47,0.51,0.65,1.33,0.8l2.55,0.48
			C11.21,10.61,12.34,12.1,12.34,13.93 M16.92,16.2c0,1.14-0.45,1.79-2.66,1.79c-0.29,0-0.55-0.02-0.8-0.06V2.86
			c0-1.15,0.39-2.34,2.63-2.34c0.28,0,0.57,0.03,0.83,0.09V16.2z M25.99,22.03c0.29,0.15,0.89,0.33,1.64,0.35
			c1.29,0.03,1.99-0.46,2.51-1.62l6.91-15.42c-0.28-0.15-0.92-0.32-1.43-0.33c-0.89-0.02-2.09,0.16-2.84,1.98l-2.24,5.28l-4.39-7.15
			c-0.28-0.09-0.98-0.21-1.48-0.21c-1.55,0-2.42,0.57-3.32,1.55l-4.27,4.66l3.43,5.4c0.64,0.99,1.47,1.49,2.83,1.49
			c0.89,0,1.63-0.21,1.97-0.37l-4.13-6.23l2.93-3.11l4.81,7.55L25.99,22.03z"/>
	</g>
	<g>
		<path class="st0" d="M46.65,17.95c-0.21,0-0.41-0.01-0.62-0.03c-0.2-0.02-0.36-0.04-0.46-0.07V7.1h-3.92
			c-0.03-0.1-0.05-0.24-0.06-0.42c-0.01-0.18-0.02-0.36-0.02-0.56c0-0.42,0.08-0.69,0.25-0.82c0.17-0.13,0.38-0.2,0.65-0.2h9.17
			c0.05,0.2,0.08,0.5,0.08,0.9c0,0.73-0.3,1.1-0.9,1.1h-3.06v9.93c0,0.26-0.08,0.48-0.24,0.66C47.35,17.86,47.06,17.95,46.65,17.95z
			"/>
		<path class="st0" d="M54.15,17.95c-0.21,0-0.41-0.01-0.62-0.03c-0.2-0.02-0.36-0.04-0.46-0.07V5.98c0-0.26,0.08-0.48,0.24-0.66
			c0.16-0.18,0.45-0.26,0.87-0.26c0.21,0,0.41,0.01,0.62,0.03c0.2,0.02,0.36,0.04,0.46,0.07v11.87c0,0.26-0.08,0.48-0.24,0.66
			C54.85,17.86,54.56,17.95,54.15,17.95z"/>
		<path class="st0" d="M63.29,18.01c-0.89,0-1.71-0.16-2.47-0.48c-0.76-0.32-1.41-0.77-1.97-1.34c-0.56-0.57-0.99-1.26-1.3-2.06
			c-0.31-0.8-0.47-1.66-0.47-2.6c0-0.91,0.16-1.77,0.47-2.57c0.31-0.8,0.75-1.49,1.3-2.08c0.55-0.59,1.21-1.05,1.97-1.38
			C61.58,5.17,62.4,5,63.29,5c0.67,0,1.3,0.07,1.91,0.2c0.61,0.13,1.18,0.31,1.73,0.53c0.01,0.09,0.02,0.17,0.03,0.24
			c0.01,0.07,0.01,0.15,0.01,0.23c0,0.42-0.09,0.74-0.27,0.98c-0.18,0.23-0.41,0.35-0.69,0.35c-0.13,0-0.27-0.03-0.43-0.08
			c-0.16-0.05-0.34-0.11-0.54-0.18c-0.2-0.07-0.44-0.12-0.71-0.18c-0.27-0.05-0.59-0.08-0.96-0.08c-0.56,0-1.08,0.11-1.57,0.32
			c-0.48,0.22-0.9,0.52-1.26,0.91c-0.36,0.39-0.64,0.87-0.84,1.42c-0.2,0.56-0.3,1.17-0.3,1.85c0,0.71,0.1,1.34,0.3,1.89
			c0.2,0.56,0.48,1.03,0.84,1.41c0.36,0.39,0.78,0.68,1.26,0.87c0.48,0.2,1.01,0.29,1.57,0.29c0.37,0,0.68-0.03,0.95-0.08
			c0.27-0.05,0.5-0.11,0.7-0.18c0.2-0.07,0.37-0.12,0.51-0.18c0.14-0.05,0.29-0.08,0.43-0.08c0.33,0,0.59,0.11,0.78,0.32
			c0.2,0.22,0.29,0.53,0.29,0.95c0,0.09,0,0.18,0,0.25c0,0.08-0.01,0.17-0.04,0.27c-0.55,0.24-1.12,0.41-1.7,0.54
			C64.7,17.95,64.04,18.01,63.29,18.01z"/>
		<path class="st0" d="M69.77,17.95c-0.21,0-0.41-0.01-0.62-0.03c-0.2-0.02-0.36-0.04-0.46-0.07V5.98c0-0.26,0.08-0.48,0.24-0.66
			c0.16-0.18,0.45-0.26,0.87-0.26c0.21,0,0.41,0.01,0.62,0.03c0.2,0.02,0.36,0.04,0.46,0.07V11l4.5-5.31
			c0.18-0.22,0.38-0.38,0.58-0.48c0.2-0.1,0.49-0.15,0.85-0.15c0.21,0,0.45,0.03,0.71,0.09c0.27,0.06,0.49,0.14,0.68,0.24l-5.12,5.9
			l5.48,6.31c-0.2,0.1-0.43,0.19-0.7,0.25c-0.27,0.07-0.51,0.1-0.73,0.1c-0.38,0-0.68-0.06-0.89-0.17c-0.22-0.11-0.42-0.28-0.62-0.5
			l-4.74-5.48v5.23c0,0.26-0.08,0.48-0.24,0.66C70.48,17.86,70.19,17.95,69.77,17.95z"/>
		<path class="st0" d="M80.84,17.83c-0.48,0-0.79-0.09-0.93-0.28c-0.14-0.19-0.21-0.43-0.21-0.73V6.12c0-0.3,0.07-0.54,0.21-0.73
			c0.14-0.19,0.45-0.28,0.93-0.28h6.58c0.03,0.1,0.05,0.25,0.07,0.43c0.02,0.18,0.03,0.37,0.03,0.55c0,0.38-0.08,0.64-0.24,0.79
			c-0.16,0.15-0.36,0.23-0.6,0.23H81.9v3.41h5.05c0.01,0.1,0.03,0.24,0.05,0.4c0.02,0.16,0.03,0.34,0.03,0.52
			c0,0.37-0.08,0.62-0.23,0.76c-0.15,0.14-0.34,0.22-0.56,0.22H81.9v3.43h5.7c0.01,0.1,0.03,0.24,0.05,0.4
			c0.02,0.16,0.03,0.34,0.03,0.52c0,0.39-0.08,0.67-0.23,0.83c-0.16,0.16-0.35,0.24-0.59,0.24H80.84z"/>
		<path class="st0" d="M93.51,17.95c-0.21,0-0.41-0.01-0.62-0.03c-0.2-0.02-0.36-0.04-0.46-0.07V7.1h-3.92
			c-0.03-0.1-0.05-0.24-0.06-0.42c-0.01-0.18-0.02-0.36-0.02-0.56c0-0.42,0.08-0.69,0.25-0.82c0.17-0.13,0.38-0.2,0.65-0.2h9.17
			c0.05,0.2,0.08,0.5,0.08,0.9c0,0.73-0.3,1.1-0.9,1.1h-3.06v9.93c0,0.26-0.08,0.48-0.24,0.66C94.22,17.86,93.93,17.95,93.51,17.95z
			"/>
	</g>
</g>
</svg>
